<svg width="1678" height="65" viewBox="0 0 1678 65" fill="none" xmlns="http://www.w3.org/2000/svg">
<g clip-path="url(#clip0_372_349)">
<path d="M998.074 254.603C926.237 273.025 854.091 290.767 781.459 305.893C740.604 314.385 698.61 318.177 656.99 322.019C535.945 333.171 414.841 344.304 293.577 353.442C216.238 359.256 138.683 361.37 61.1841 365.188C52.2921 365.612 43.3635 366.154 34.4531 366.637C34.3323 365.561 34.289 364.444 34.1682 363.369C56.2979 361.272 78.3643 358.962 100.48 357.121C150.112 352.972 199.767 348.959 249.385 345.065C391.566 333.975 532.72 315.104 673.462 292.536C751.248 280.046 825.543 256.415 897.992 226.177C912.374 220.187 927.164 214.972 941.628 208.294C925.723 210.827 909.944 213.788 894.008 215.792C833.76 223.205 776.227 242.167 717.591 256.31C653.553 271.764 588.407 278.437 522.756 282.554C488.609 284.689 454.678 290.525 420.668 294.52C386.736 298.473 352.822 302.368 318.886 306.126C315.658 306.488 312.288 305.638 308.615 305.344C343.055 298.497 376.855 292.036 410.562 284.833C419.325 282.941 427.419 278.182 436.114 275.88C467.795 267.465 499.581 259.341 531.411 251.491C531.411 251.491 506.708 279.267 564.36 273.32C587.21 270.993 611.598 252.4 634.702 250.93C649.72 250.004 664.535 245.965 679.479 243.394C708.154 238.395 734.22 225.902 760.439 214.172C770.538 209.644 802.362 207.049 807.999 196.401C814.523 184.147 792.937 183.231 792.937 183.231C809.177 179.829 825.559 175.757 842.053 175.093C892.438 173.124 942.77 169.646 993.32 173.633C1011.13 175.001 1029.57 171.63 1047.38 168.586C1090.62 161.22 1133.61 151.898 1177.54 148.968C1184.57 148.486 1191.49 146.672 1198.34 145.096C1238.85 136.043 1279.4 126.871 1319.92 117.758C1294.16 119.637 1268.38 121.575 1242.58 123.377C1235.28 123.904 1228 124.372 1220.71 124.644C1120.95 129.091 1021.16 131.126 921.375 124.987C889.788 123.048 858.193 120.718 826.466 118.606C836.203 112.734 846.596 107.259 855.998 100.375C860.535 97.0435 882.157 104.33 899.821 86.7024C905.639 80.913 879.399 74.0776 879.399 74.0776C913.033 64.3856 947.437 59.5395 982.304 57.1734C993.307 56.4306 1004.22 55.3366 1015.24 53.4955C980.908 44.9299 947.321 33.7407 910.947 37.1974C885.882 39.5518 860.266 41.8002 835.444 38.9736C801.227 35.052 768.173 39.7322 734.741 44.1656C691.769 49.8599 648.755 55.4767 605.711 60.5647C594.114 61.9671 582.06 64.0066 570.621 59.8769C570.037 58.2032 517.476 65.7278 516.892 64.0541C519.417 63.8634 554.602 37.6194 557 37C589.073 28.5762 640.403 36.9889 672.621 28.9345C681.28 26.7513 690.531 26.6337 699.519 26.1099C751.387 22.9132 803.237 19.7757 855.091 16.8341C872.205 15.8441 889.332 15.4421 906.455 14.844C924.89 14.1985 942.689 10.3708 958.586 0.956501C966.215 -3.55761 1002.55 42.966 1018.37 24.7698C1024.4 17.8781 996.729 12.7396 996.729 12.7396C1027.18 9.13395 1057.21 12.7324 1087.24 16.9781C1140.85 24.5081 1197.93 0.00873 1252 1.00007C1316.53 2.18165 1377.61 30.8747 1442 35C1442 35 1423.55 8.08374 1431.76 14.2621C1453.28 30.4711 1482.76 21.8277 1492.57 24.0902C1536.03 33.9917 1580.27 37.1912 1624.88 36.6773C1650.09 36.3785 1675.04 34.1835 1699.59 28.2324C1704.59 26.9895 1709.99 27.3653 1717.58 26.7338C1701.53 32.6615 1687.66 36.994 1674.54 42.9186C1647.31 55.1805 1618.36 58.5386 1589.11 61.021C1549.4 64.3523 1509.62 67.2733 1470.11 72.4826C1370.94 85.4844 1271.29 92.1051 1171.47 97.3765C1108.59 100.728 1045.74 105.001 982.931 108.959C977.43 109.33 971.977 110.171 966.544 112.835C988.177 113.18 1022.62 125.802 1044.23 126.011C1140.69 127.163 1223.89 107.461 1320.02 101.111C1350.11 99.0812 1380.47 101.026 1410.69 100.464C1431.24 100.087 1451.74 98.4572 1472.27 97.7477C1481.85 97.4075 1491.47 97.3408 1500.98 98.2765C1507.66 98.9192 1515.07 99.9189 1519.11 109.93C1508.99 109.066 1500.23 108.037 1491.44 107.713C1481.43 107.337 1458.66 101.447 1449 103.319C1432.3 106.515 1426.58 113.244 1412.51 121.6C1385.52 137.699 1355.45 146.551 1328.08 161.365C1316.24 167.752 1303.41 173.122 1290.45 176.631C1192.98 203.007 1095.57 229.598 997.801 254.648L998.074 254.603ZM1880.26 145.882C1839.06 144.206 1808.67 152.437 1769.28 164.369C1747.15 171.072 1715.11 175.613 1692.66 181.049C1670.75 186.395 1647.27 186.383 1626.31 194.748C1499.84 245.363 1527.82 196.991 1527.82 196.991C1498.43 194.242 1481.05 204.236 1452.24 210.101C1415.66 217.582 1379.32 226.37 1342.55 232.56C1294.34 240.718 1245.61 246.123 1197.38 254.144C1143.18 263.174 1089.22 273.767 1035.12 283.736C1014.54 287.544 948.709 299.134 928.107 303.001C928.206 303.94 973.587 297.176 973.763 298.074C982.691 297.532 991.602 297.049 1000.55 296.448C1038.51 293.938 1076.35 289.313 1114.51 294.131C1130.92 296.234 1147.96 299.049 1164.17 297C1233.7 288.116 1303.17 279.017 1371.4 261.75C1429.09 247.117 1487.06 233.028 1545.61 222.69C1616.73 210.145 1686.89 194.641 1755.18 171.098C1763.75 168.172 1772.73 166.413 1781.55 164.344C1809.11 157.702 1800.13 168.028 1828.42 166.997C1835.38 166.752 1854.58 150.641 1885.33 147.323C1883.14 146.644 1881.75 145.889 1880.42 145.8L1880.26 145.882ZM512.226 158.457C465.376 179.173 408.923 171.409 357.45 171.029C327.077 170.83 296.959 172.526 267.139 178.079C257.433 179.873 241.273 190.763 231.508 192.539C201.802 197.932 178.517 194.544 148.856 200.211C141.26 201.685 134.062 205.23 126.705 207.817C134.979 208.759 142.289 206.741 149.719 205.8C215.16 197.335 280.654 189.537 346.736 186.333C402.595 183.659 458.252 175.148 514.129 172.415C588.456 168.781 661.65 157.918 734.818 145.879C742.144 144.645 769.266 134.817 780.255 127.839C777.484 127.565 750.954 135.695 749.131 135.714C732.008 136.312 714.893 137.302 697.703 137.489C655.325 137.917 613.099 137.223 570.977 130.332C552.64 127.31 520.379 129.64 520.379 129.64C520.379 129.64 567.31 133.998 512.126 158.361L512.226 158.457ZM1578.73 288.374C1514.85 297.648 1451 306.862 1387.21 316.488C1387.21 316.488 1404 317.151 1394.26 324.71C1374.53 340.009 1361.78 331.319 1354.89 333.014C1342.33 336.064 1333.67 342.854 1320.79 344.441C1301.62 346.808 1283.54 350.288 1263.18 358.19C1383.79 337.558 1505.43 322.825 1622.6 283.346C1619.74 283.368 1616.79 283.038 1614.01 283.411C1602.24 284.954 1590.49 286.634 1578.75 288.314L1578.73 288.374Z" fill="white"/>
<path d="M175.07 76.69C101.769 65.4252 28.2276 54.867 -45.5407 46.961C-87.0329 42.5296 -129.196 42.8884 -170.992 43.1597C-292.547 43.9713 -414.159 44.8071 -535.733 47.6453C-613.269 49.4682 -690.656 54.9953 -768.155 58.8207C-777.045 59.2739 -785.984 59.6129 -794.898 60.0091C-794.913 61.0915 -794.846 62.207 -794.86 63.2894C-772.632 63.1981 -750.445 63.3262 -728.256 62.9823C-678.456 62.2282 -628.648 61.3358 -578.887 60.3292C-436.305 57.3763 -293.979 62.268 -151.699 70.8791C-73.0621 75.6553 3.19759 91.8614 78.2707 114.824C93.1717 119.371 108.403 123.105 123.455 128.328C107.377 127.372 91.3836 125.977 75.3275 125.551C14.6422 124.102 -44.4775 110.892 -104.22 102.587C-169.468 93.5091 -234.954 93.2774 -300.691 95.6405C-334.883 96.8755 -369.224 94.4062 -403.462 93.7771C-437.618 93.1809 -471.751 92.6419 -505.892 92.2412C-509.14 92.1981 -512.41 93.3756 -516.036 94.0302C-481.09 97.4552 -446.818 100.559 -412.566 104.411C-403.659 105.431 -395.136 109.371 -386.256 110.806C-353.901 116.064 -321.471 121.02 -289.023 125.701C-289.023 125.701 -316.339 100.491 -258.381 100.736C-235.413 100.803 -209.314 116.907 -186.178 116.096C-171.141 115.54 -156.001 118.102 -140.877 119.191C-111.849 121.344 -84.6803 131.211 -57.4341 140.305C-46.9386 143.817 -15.0136 143.269 -8.35684 153.31C-0.658834 164.864 -22.0498 167.898 -22.0498 167.898C-5.55397 169.686 11.1498 172.127 27.629 171.164C77.9626 168.167 128.393 166.675 178.305 157.734C195.896 154.621 214.574 156.161 232.603 157.437C276.35 160.514 320.052 165.561 364.061 164.154C371.102 163.943 378.169 165.066 385.139 165.961C426.343 170.985 467.595 176.123 508.823 181.204C483.002 181.869 457.156 182.476 431.302 183.222C423.984 183.416 416.69 183.667 409.411 184.113C309.699 189.503 210.194 197.295 111.496 213.223C80.2533 218.26 49.0408 223.688 17.6749 228.911C27.9427 233.797 38.8237 238.222 48.8576 244.148C53.7001 247.017 74.5009 237.639 93.8133 253.442C100.173 258.631 74.7324 268.015 74.7324 268.015C109.157 274.351 143.87 275.789 178.802 274.713C189.824 274.369 200.796 274.384 211.942 275.132C178.617 287.034 146.294 301.474 109.756 301.613C84.5813 301.736 58.8681 302.019 34.4447 307.274C0.779839 314.543 -32.5744 313.137 -66.2803 312.015C-109.605 310.576 -152.962 309.219 -196.299 308.391C-207.977 308.136 -220.173 307.292 -231.15 312.527C-231.567 314.251 -284.613 311.934 -285.03 313.657C-282.498 313.598 -227.311 317.165 -224.863 317.545C-192.117 322.772 -159.454 328.439 -126.6 333.284C-117.769 334.605 -108.551 333.812 -99.5549 333.448C-47.6242 331.526 4.28255 329.547 56.1741 327.373C73.3029 326.674 90.3863 325.389 107.485 324.3C125.894 323.128 143.984 325.186 160.73 332.99C168.766 336.732 204.278 326.666 221.82 343.216C228.499 349.481 201.464 357.318 201.464 357.318C232.121 357.91 261.655 351.374 291.119 344.194C343.723 331.427 397.097 324.792 450.812 318.486C514.91 310.961 578.441 298.899 642.117 288.459C642.117 288.459 622.737 280.15 630.297 273.194C650.116 254.947 680.304 260.648 689.845 257.431C732.12 243.302 775.83 235.765 820.276 231.887C845.39 229.704 870.436 229.434 895.459 232.94C900.55 233.685 905.887 232.78 913.506 232.661C896.951 228.342 882.725 225.395 869.077 220.79C840.776 211.267 811.64 210.773 782.28 211.181C742.435 211.773 702.564 212.78 662.73 211.484C562.767 208.302 462.947 211.518 363.093 216.093C300.186 218.944 237.226 220.876 174.33 223.117C168.819 223.289 163.31 222.988 157.642 220.872C179.135 218.4 212.166 202.451 233.651 200.117C329.535 189.479 414.271 200.9 510.559 197.761C540.703 196.82 570.716 191.898 600.845 189.484C621.341 187.836 641.895 187.442 662.397 186.128C671.964 185.524 681.549 184.644 690.919 182.777C697.503 181.48 704.781 179.756 707.812 169.396C697.831 171.251 689.209 173.138 680.493 174.325C670.572 175.684 648.492 183.785 638.69 182.874C621.761 181.335 615.407 175.203 600.577 168.272C572.135 154.906 541.346 149.055 512.651 137.006C500.237 131.815 486.945 127.734 473.699 125.516C374.107 108.858 274.556 91.9802 174.794 76.672L175.07 76.69ZM1063.68 98.0854C1022.83 103.807 991.781 98.6061 951.408 90.6081C928.726 86.1145 896.397 84.7475 873.52 81.5469C851.196 78.382 827.824 80.7051 806.144 74.4429C675.315 36.5156 707.911 81.9006 707.911 81.9006C678.935 87.5283 660.662 79.2917 631.411 76.2903C594.269 72.4457 557.242 67.2751 520.044 64.7324C471.261 61.3577 422.243 60.7733 373.451 57.5369C318.63 53.8832 263.884 48.6509 209.069 44.053C188.21 42.2884 121.563 37.2315 100.681 35.4098C100.686 34.4657 146.513 36.7326 146.6 35.8216C155.538 35.4825 164.453 35.0864 173.416 34.8045C211.441 33.5672 249.552 34.4466 287.049 25.8974C303.178 22.1896 319.857 17.7117 336.189 18.1561C406.256 20.1561 476.28 22.3757 545.883 32.8459C604.727 41.732 663.801 50.0496 723.093 54.5756C795.101 60.0623 866.441 68.5892 936.723 85.2979C945.534 87.3673 954.645 88.2339 963.624 89.4253C991.706 93.3234 981.757 83.9303 1010.01 82.1727C1016.96 81.7326 1037.65 95.8759 1068.58 96.1522C1066.47 97.0435 1065.16 97.9312 1063.84 98.1515L1063.68 98.0854ZM-298.961 220.171C-347.622 204.165 -403.037 217.446 -454.223 222.888C-484.429 226.075 -514.568 227.35 -544.79 224.758C-554.625 223.928 -571.778 214.68 -581.671 213.874C-611.763 211.43 -634.602 217.093 -664.677 214.372C-672.38 213.652 -679.892 210.833 -687.467 208.982C-679.326 207.23 -671.854 208.519 -664.367 208.725C-598.411 210.709 -532.467 212.026 -466.39 208.713C-410.54 205.877 -354.315 208.872 -298.44 206.094C-224.116 202.397 -150.209 206.006 -76.2112 210.788C-68.7994 211.295 -40.8418 218.407 -29.2204 224.269C-31.9502 224.815 -59.1521 219.335 -60.9681 219.495C-78.0666 220.585 -95.1955 221.284 -112.321 222.788C-154.536 226.532 -196.489 231.377 -237.728 242.379C-255.678 247.191 -288.012 248.046 -288.012 248.046C-288.012 248.046 -241.738 239.092 -299.051 220.277L-298.961 220.171Z" fill="white"/>
</g>
<defs>
<clipPath id="clip0_372_349">
<rect width="1678" height="65" fill="white" transform="matrix(-1 0 0 -1 1678 65)"/>
</clipPath>
</defs>
</svg>
